<?xml version="1.0" encoding="iso-8859-1"?>
<!-- Generator: Adobe Illustrator 19.0.0, SVG Export Plug-In . SVG Version: 6.00 Build 0)  -->
<svg version="1.1" id="Capa_1" xmlns="http://www.w3.org/2000/svg" xmlns:xlink="http://www.w3.org/1999/xlink" x="0px" y="0px"
	 viewBox="0 0 468.294 468.294" style="enable-background:new 0 0 468.294 468.294;" xml:space="preserve">
<polygon style="fill:#DC8744;" points="346.395,468.294 389.469,468.294 340.362,302.465 297.288,302.465 323.68,391.587 
	144.613,391.587 171.006,302.465 127.932,302.465 78.825,468.294 121.899,468.294 135.368,422.806 332.925,422.806 "/>
<path style="fill:#FCD462;" d="M0.001,320.227V24.976C0.001,11.182,11.183,0,24.976,0h418.341c13.794,0,24.976,11.182,24.976,24.976
	v295.251c0,13.794-11.182,24.976-24.976,24.976H24.976C11.183,345.202,0.001,334.02,0.001,320.227z"/>
<rect x="30.29" y="30.29" style="fill:#44C4A1;" width="407.727" height="284.628"/>
<g>
	<rect x="30.29" y="30.29" style="fill:#31978C;" width="21.004" height="284.628"/>
	<rect x="417.006" y="30.309" style="fill:#31978C;" width="21.004" height="284.628"/>
</g>
<g>
	<polygon style="fill:#3EA69B;" points="416.255,58.422 51.126,58.422 30.288,30.289 438.005,30.289 	"/>
	<polygon style="fill:#3EA69B;" points="416.255,286.781 51.126,286.781 30.288,314.915 438.005,314.915 	"/>
</g>
<rect x="287.651" y="260.871" style="fill:#E1E6E9;" width="112.827" height="25.9"/>
<g>
</g>
<g>
</g>
<g>
</g>
<g>
</g>
<g>
</g>
<g>
</g>
<g>
</g>
<g>
</g>
<g>
</g>
<g>
</g>
<g>
</g>
<g>
</g>
<g>
</g>
<g>
</g>
<g>
</g>
</svg>
