<svg
    id="Layer_5"
    enable-background="new 0 0 64 64"
    viewBox="0 0 64 64"
    xmlns="http://www.w3.org/2000/svg"
>
    <g>
        <g>
            <g>
                <path
                    d="m51 58h6v4h-6z"
                    fill="#aab2bd"
                />
            </g>
            <g>
                <path
                    d="m29 58h6v4h-6z"
                    fill="#aab2bd"
                />
            </g>
            <g>
                <path
                    d="m7 58h6v4h-6z"
                    fill="#aab2bd"
                />
            </g>
            <g>
                <path
                    d="m62 54v2c0 1.1-.9 2-2 2h-3-6-3c-1.1 0-2-.9-2-2v-2z"
                    fill="#ccd1d9"
                />
            </g>
            <g>
                <path
                    d="m40 54v2c0 1.1-.9 2-2 2h-3-6-3c-1.1 0-2-.9-2-2v-2z"
                    fill="#ccd1d9"
                />
            </g>
            <g>
                <path
                    d="m18 54v2c0 1.1-.9 2-2 2h-3-6-3c-1.1 0-2-.9-2-2v-2z"
                    fill="#ccd1d9"
                />
            </g>
            <g>
                <path
                    d="m62 48v6h-16v-4-2c0-1.1.9-2 2-2h6 6c1.1 0 2 .9 2 2z"
                    fill="#69d6f4"
                />
            </g>
            <g>
                <path
                    d="m40 50v4h-16v-4-2c0-1.1.9-2 2-2h6 6c1.1 0 2 .9 2 2z"
                    fill="#69d6f4"
                />
            </g>
            <g>
                <path
                    d="m18 50v4h-16v-6c0-1.1.9-2 2-2h6 6c1.1 0 2 .9 2 2z"
                    fill="#69d6f4"
                />
            </g>
            <g>
                <path
                    d="m39.71 32.72c1.39-1.1 2.29-2.81 2.29-4.72 0-3.31-2.69-6-6-6-.71 0-1.4.13-2.03.36-.18-3-1.55-5.68-3.65-7.56 1.48-7.3 7.94-12.8 15.68-12.8 8.84 0 16 7.16 16 16 0 8.17-6.12 14.91-14.02 15.88-.65.08-1.31.12-1.98.12-2.23 0-4.36-.46-6.29-1.28z"
                    fill="#69d6f4"
                />
            </g>
            <g>
                <path
                    d="m42 28c0 1.91-.9 3.62-2.29 4.72-1.02.8-2.31 1.28-3.71 1.28h-4-16-4c-3.31 0-6-2.69-6-6s2.69-6 6-6h.05c.51-5.6 5.21-10 10.95-10 2.81 0 5.38 1.05 7.32 2.8 2.1 1.88 3.47 4.56 3.65 7.56.63-.23 1.32-.36 2.03-.36 3.31 0 6 2.69 6 6z"
                    fill="#e6e9ed"
                />
            </g>
            <g>
                <circle
                    cx="32"
                    cy="28"
                    fill="#ff826e"
                    r="2"
                />
            </g>
            <g>
                <circle
                    cx="24"
                    cy="28"
                    fill="#ff826e"
                    r="2"
                />
            </g>
            <g>
                <circle
                    cx="16"
                    cy="28"
                    fill="#ff826e"
                    r="2"
                />
            </g>
        </g>
        <g>
            <path
                d="m60 45h-5v-6h-6v-4.281c7.946-1.423 14-8.37 14-16.719 0-9.374-7.626-17-17-17-7.526 0-14.134 4.996-16.274 12.081-1.924-1.31-4.239-2.081-6.726-2.081-5.958 0-10.902 4.263-11.837 10.05-3.467.415-6.163 3.374-6.163 6.95 0 3.859 3.14 7 7 7h3v4h-6v6h-5c-1.654 0-3 1.346-3 3v8c0 1.654 1.346 3 3 3h2v2h-2v2h11.999v-2h-1.999v-2h2c1.654 0 3-1.346 3-3v-5h4v5c0 1.654 1.346 3 3 3h2v2h-2v2h11.999v-2h-1.999v-2h2c1.654 0 3-1.346 3-3v-5h4v5c0 1.654 1.346 3 3 3h2v2h-2v2h11.999v-2h-1.999v-2h2c1.654 0 3-1.346 3-3v-8c0-1.654-1.346-3-3-3zm1 3v5h-14v-5c0-.552.449-1 1-1h12c.551 0 1 .448 1 1zm-15-15c-1.543 0-3.051-.231-4.498-.687.935-1.19 1.498-2.686 1.498-4.313 0-.34-.033-.672-.08-1h8.626c-1.292 3.613-3.314 6-5.546 6zm6.976-14c-.07 2.142-.354 4.179-.816 6h-9.845c-.652-1.366-1.729-2.49-3.065-3.194-.116-.917-.185-1.855-.215-2.806zm-13.952-2c.07-2.142.354-4.179.816-6h12.319c.462 1.821.746 3.858.816 6zm12.074 15.089c1.038-1.327 1.908-3.066 2.566-5.089h4.308c-1.737 2.304-4.115 4.087-6.874 5.089zm8.158-7.089h-5.034c.43-1.84.689-3.861.752-6h5.975c-.143 2.155-.732 4.188-1.693 6zm0-14c.961 1.812 1.55 3.845 1.693 6h-5.975c-.063-2.139-.322-4.16-.752-6zm-1.284-2h-4.308c-.658-2.023-1.528-3.762-2.566-5.089 2.759 1.002 5.137 2.785 6.874 5.089zm-11.972-6c2.232 0 4.254 2.387 5.546 6h-11.092c1.292-3.613 3.314-6 5.546-6zm-5.086.894c-1.043 1.329-1.917 3.074-2.578 5.106h-4.324c1.752-2.321 4.151-4.109 6.902-5.106zm-8.17 7.106h5.034c-.43 1.84-.689 3.861-.752 6h-3.649c-.536-.927-1.193-1.772-1.947-2.519.296-1.231.738-2.397 1.314-3.481zm4.421 10.105c-.38-.064-.767-.105-1.165-.105-.389 0-.778.033-1.164.1-.115-.724-.296-1.426-.534-2.1h2.732c.022.71.064 1.411.131 2.105zm-25.165 11.895c-2.757 0-5-2.243-5-5 0-2.756 2.242-4.999 4.991-4.999h.002l.966.056.087-.964c.467-5.184 4.746-9.093 9.954-9.093 5.286 0 9.665 4.137 9.969 9.418l.077 1.337 1.26-.453c.556-.2 1.126-.302 1.694-.302 2.757 0 5 2.243 5 5s-2.243 5-5 5zm-8 14h12c.551 0 1 .448 1 1v5h-14v-5c0-.552.449-1 1-1zm8 14h-4v-2h4zm4-4h-12c-.551 0-1-.448-1-1v-1h14v1c0 .552-.449 1-1 1zm3-8v-1c0-1.654-1.346-3-3-3h-5v-4h6v-6h14v10h-5c-1.654 0-3 1.346-3 3v1zm20 4h-14v-5c0-.552.449-1 1-1h12c.551 0 1 .448 1 1zm-5 8h-4v-2h4zm4-4h-12c-.551 0-1-.448-1-1v-1h14v1c0 .552-.449 1-1 1zm3-8v-1c0-1.654-1.346-3-3-3h-5v-10h3c1.425 0 2.751-.43 3.858-1.165 1.958.761 4.018 1.165 6.142 1.165.338 0 .667-.031 1-.051v6.051h6v4h-5c-1.654 0-3 1.346-3 3v1zm15 12h-4v-2h4zm4-4h-12c-.551 0-1-.448-1-1v-1h14v1c0 .552-.449 1-1 1z"
            />
            <path
                d="m16 25c-1.654 0-3 1.346-3 3s1.346 3 3 3 3-1.346 3-3-1.346-3-3-3zm0 4c-.551 0-1-.448-1-1s.449-1 1-1 1 .448 1 1-.449 1-1 1z"
            />
            <path
                d="m24 25c-1.654 0-3 1.346-3 3s1.346 3 3 3 3-1.346 3-3-1.346-3-3-3zm0 4c-.551 0-1-.448-1-1s.449-1 1-1 1 .448 1 1-.449 1-1 1z"
            />
            <path
                d="m32 25c-1.654 0-3 1.346-3 3s1.346 3 3 3 3-1.346 3-3-1.346-3-3-3zm0 4c-.551 0-1-.448-1-1s.449-1 1-1 1 .448 1 1-.449 1-1 1z"
            />
            <path d="m23 15v2c2.636 0 5.001 1.762 5.751 4.285l1.917-.57c-1.001-3.365-4.154-5.715-7.668-5.715z" />
        </g>
    </g>
</svg>