<svg
    id="Layer_1"
    enable-background="new 0 0 511.639 511.639"
    viewBox="0 0 511.639 511.639"
    xmlns="http://www.w3.org/2000/svg"
>
    <g>
        <g>
            <g>
                <g>
                    <ellipse
                        cx="204.555"
                        cy="333.515"
                        fill="#ffdbd3"
                        rx="93.693"
                        ry="94.123"
                    />
                    <g>
                        <g>
                            <g>
                                <path
                                    d="m336.488 371.54h-155.049c-12.462 0-22.565-10.103-22.565-22.565v-318.91c0-12.462 10.103-22.565 22.565-22.565h155.049c12.462 0 22.565 10.103 22.565 22.565v318.909c0 12.463-10.103 22.566-22.565 22.566z"
                                    fill="#7776d0"
                                />
                                <path
                                    d="m336.488 7.5h-40c12.462 0 22.565 10.103 22.565 22.565v318.909c0 12.463-10.103 22.565-22.565 22.565h40c12.462 0 22.565-10.103 22.565-22.565v-318.909c0-12.462-10.103-22.565-22.565-22.565z"
                                    fill="#6967bf"
                                />
                                <path
                                    d="m158.873 41.534h200.18v280.434h-200.18z"
                                    fill="#d4d9ff"
                                />
                                <path
                                    d="m319.053 41.534h40v280.434h-40z"
                                    fill="#c7cdff"
                                />
                            </g>
                        </g>
                    </g>
                    <path
                        d="m189.226 382.702c27.234-39.603 15.21-105.672-30.793-125.578v-90.744c0-13.197-10.649-23.894-23.785-23.894-13.136 0-23.785 10.698-23.785 23.894v178.966l-35.305 35.467 82.216 82.593 36.1-36.266"
                        fill="#ffdbd3"
                    />
                    <path
                        d="m158.432 257.124v-90.744c0-13.196-10.649-23.894-23.785-23.894s-23.785 10.698-23.785 23.894v90.891c32.702 14.361 48.103 52.128 44.286 86.928-2.248 20.493 13.462 38.504 34.077 38.504 27.235-39.604 15.211-105.673-30.793-125.579z"
                        fill="#ffd1c7"
                    />
                    <g>
                        <path
                            d="m327.884 116.067v-.1c0-12.074 9.788-21.861 21.861-21.861h13.094c12.074 0 21.861 9.788 21.861 21.861v.1c0 12.074-9.788 21.861-21.861 21.861h-13.094c-12.073.001-21.861-9.787-21.861-21.861z"
                            fill="#ffdbd3"
                        />
                        <path
                            d="m362.84 94.106h-13.094c-2.997 0-5.853.603-8.453 1.694 7.876 3.305 13.408 11.09 13.408 20.167v.1c0 9.077-5.532 16.861-13.408 20.167 2.6 1.091 5.456 1.694 8.453 1.694h13.094c12.074 0 21.861-9.788 21.861-21.861v-.1c0-12.073-9.788-21.861-21.861-21.861z"
                            fill="#ffd1c7"
                        />
                        <path
                            d="m327.884 159.89v-.1c0-12.074 9.788-21.861 21.861-21.861h13.094c12.074 0 21.861 9.788 21.861 21.861v.1c0 12.074-9.788 21.861-21.861 21.861h-13.094c-12.073 0-21.861-9.788-21.861-21.861z"
                            fill="#ffdbd3"
                        />
                        <path
                            d="m362.84 137.928h-13.094c-2.997 0-5.853.603-8.453 1.694 7.876 3.305 13.408 11.09 13.408 20.167v.1c0 9.077-5.532 16.861-13.408 20.167 2.6 1.091 5.456 1.695 8.453 1.695h13.094c12.074 0 21.861-9.788 21.861-21.861v-.1c0-12.074-9.788-21.862-21.861-21.862z"
                            fill="#ffd1c7"
                        />
                        <path
                            d="m327.884 203.712v-.1c0-12.074 9.788-21.861 21.861-21.861h13.094c12.074 0 21.861 9.788 21.861 21.861v.1c0 12.074-9.788 21.861-21.861 21.861h-13.094c-12.073 0-21.861-9.787-21.861-21.861z"
                            fill="#ffdbd3"
                        />
                        <path
                            d="m362.84 181.751h-13.094c-2.997 0-5.853.603-8.453 1.694 7.876 3.305 13.408 11.09 13.408 20.167v.1c0 9.077-5.532 16.861-13.408 20.167 2.6 1.091 5.456 1.694 8.453 1.694h13.094c12.074 0 21.861-9.787 21.861-21.861v-.1c0-12.074-9.788-21.861-21.861-21.861z"
                            fill="#ffd1c7"
                        />
                        <path
                            d="m327.884 247.535v-.1c0-12.074 9.788-21.861 21.861-21.861h13.094c12.074 0 21.861 9.788 21.861 21.861v.1c0 12.074-9.788 21.861-21.861 21.861h-13.094c-12.073 0-21.861-9.788-21.861-21.861z"
                            fill="#ffdbd3"
                        />
                        <path
                            d="m362.84 225.573h-13.094c-2.997 0-5.853.603-8.453 1.695 7.876 3.305 13.408 11.09 13.408 20.167v.1c0 9.077-5.532 16.861-13.408 20.167 2.6 1.091 5.456 1.695 8.453 1.695h13.094c12.074 0 21.861-9.788 21.861-21.861v-.1c0-12.075-9.788-21.863-21.861-21.863z"
                            fill="#ffd1c7"
                        />
                    </g>
                    <path
                        d="m173.062 494.729c-12.969 13.028-34.007 13.028-46.976 0l-77.425-77.78c-12.953-13.012-12.953-34.096 0-47.108 12.969-13.028 34.007-13.028 46.976 0l77.425 77.78c12.952 13.011 12.952 34.096 0 47.108z"
                        fill="#7776d0"
                    />
                </g>
            </g>
        </g>
        <g>
            <path
                d="m83.124 98.34c3.233 2.939 7.546 1.884 10.6-.48 2.79-3.05 2.58-7.8-.479-10.59-3.061-2.8-7.8-2.58-10.59.471-2.801 3.059-2.591 7.799.469 10.599z"
            />
            <path
                d="m58.884 132.59c3.375 2.094 8.234.966 10.33-2.4 2.19-3.52 1.11-8.149-2.399-10.33-3.521-2.189-8.15-1.119-10.33 2.4-2.191 3.52-1.121 8.139 2.399 10.33z"
            />
            <path
                d="m119.214 72.08c5.723 0 9.499-7.341 5.98-12.021-2.49-3.3-7.2-3.96-10.5-1.47-3.311 2.5-3.971 7.2-1.471 10.51 1.471 1.951 3.721 2.981 5.991 2.981z"
            />
            <path
                d="m41.374 170.729c3.605 1.377 8.286-.633 9.71-4.279 1.5-3.86-.42-8.21-4.28-9.71-3.859-1.5-8.199.409-9.699 4.279-1.511 3.861.408 8.201 4.269 9.71z"
            />
            <path
                d="m31.214 211.439c3.711.717 8.063-2.297 8.75-6 .76-4.069-1.92-7.989-5.99-8.739-4.08-.771-7.989 1.92-8.75 5.989-.76 4.071 1.919 7.991 5.99 8.75z"
            />
            <path
                d="m41.254 320.95c-3.86 1.5-5.78 5.84-4.28 9.699 1.15 2.98 3.98 4.801 6.99 4.801 4.761 0 8.769-5.628 7-10.21-1.5-3.87-5.84-5.79-9.71-4.29z"
            />
            <path
                d="m33.893 294.97c4.08-.75 6.771-4.67 6.011-8.74-.75-4.069-4.67-6.76-8.74-6.01-4.07.76-6.76 4.67-6.01 8.74.67 3.609 3.819 6.14 7.37 6.14.449 0 .909-.04 1.369-.13z"
            />
            <path
                d="m28.734 253.33c4.14 0 7.5-3.36 7.5-7.5 0-4.141-3.351-7.5-7.5-7.5-4.141-.011-7.5 3.35-7.5 7.489-.011 4.15 3.35 7.5 7.489 7.511z"
            />
            <path
                d="m451.674 361.26c-3.49-2.22-8.13-1.18-10.35 2.31-2.22 3.5-1.19 8.131 2.31 10.36 3.767 2.125 7.217 1.355 10.351-2.31 2.219-3.5 1.189-8.13-2.311-10.36z"
            />
            <path
                d="m446.234 121.979c-3.54 2.141-4.67 6.761-2.521 10.301 2.049 3.384 6.926 4.572 10.311 2.52 3.54-2.15 4.659-6.76 2.52-10.3-2.151-3.54-6.76-4.67-10.31-2.521z"
            />
            <path
                d="m420.174 89.1c-3.09 2.76-3.35 7.5-.59 10.59 3.448 3.123 6.978 3.32 10.59.591 3.08-2.761 3.351-7.5.59-10.591-2.76-3.081-7.501-3.35-10.59-.59z"
            />
            <path
                d="m469.553 323.31c-3.85-1.54-8.21.33-9.75 4.17-1.838 4.595 2.163 10.29 6.96 10.29 2.98 0 5.79-1.779 6.971-4.72 1.529-3.84-.341-8.21-4.181-9.74z"
            />
            <path
                d="m482.984 240.84c-4.15-.04-7.54 3.28-7.58 7.43-.043 4.475 3.654 6.967 7.5 7.57 4.109 0 7.46-3.31 7.5-7.42.04-4.15-3.28-7.54-7.42-7.58z"
            />
            <path
                d="m468.464 173.6c.88 0 1.771-.149 2.641-.479 3.869-1.46 5.829-5.78 4.38-9.66-1.46-3.88-5.78-5.84-9.66-4.38s-5.84 5.779-4.38 9.66c1.129 3.009 3.988 4.859 7.019 4.859z"
            />
            <path
                d="m472.114 207.84c.651 3.702 4.965 6.767 8.68 6.09 4.08-.71 6.811-4.6 6.09-8.68-.71-4.08-4.6-6.811-8.68-6.09-4.08.71-6.811 4.6-6.09 8.68z"
            />
            <path
                d="m427.114 395.29c-3.03-2.83-7.771-2.66-10.601.37-2.819 3.029-2.649 7.779.38 10.6 3.584 2.798 7.117 2.674 10.601-.37 2.82-3.04 2.66-7.781-.38-10.6z"
            />
            <path
                d="m480.094 282.689c-4.069-.8-8.01 1.851-8.81 5.91-.822 4.237 3.107 8.95 7.37 8.95 3.51 0 6.649-2.48 7.35-6.05.799-4.069-1.85-8.009-5.91-8.81z"
            />
            <path
                d="m273.704 464.88v-.01c-4.13.34-7.21 3.949-6.88 8.08.295 3.634 4.333 7.245 8.08 6.88 4.13-.33 7.21-3.95 6.88-8.08-.34-4.13-3.96-7.21-8.08-6.87z"
            />
            <path
                d="m351.584 443.67c-3.729 1.81-5.28 6.29-3.47 10.02 1.71 3.513 6.518 5.203 10.02 3.471 3.73-1.811 5.28-6.29 3.471-10.021-1.811-3.72-6.291-5.281-10.021-3.47z"
            />
            <path
                d="m313.634 457.899c-4 1.091-6.359 5.21-5.27 9.21 1.006 3.691 5.542 6.269 9.21 5.271 4-1.09 6.359-5.21 5.27-9.21s-5.21-6.351-9.21-5.271z"
            />
            <path
                d="m399.053 60.189c-.01 0-.01 0-.01 0-3.27-2.529-7.979-1.92-10.52 1.351-2.53 3.279-1.92 7.99 1.359 10.52 3.692 2.474 7.199 2.025 10.521-1.35 2.53-3.28 1.921-7.99-1.35-10.521z"
            />
            <path
                d="m386.263 422.67c-3.33 2.46-4.029 7.16-1.569 10.49 3.282 3.436 6.778 3.959 10.489 1.569 3.33-2.46 4.03-7.16 1.57-10.489-2.459-3.33-7.159-4.03-10.49-1.57z"
            />
            <path
                d="m233.134 464.439v-.01c-4.12-.42-7.8 2.58-8.229 6.7-.407 3.99 3.447 8.27 7.47 8.27 3.8 0 7.06-2.88 7.46-6.739.419-4.12-2.581-7.801-6.701-8.221z"
            />
            <path
                d="m392.201 247.435c0-8.677-3.784-16.486-9.788-21.866 12.85-11.54 12.867-32.292 0-43.822 12.848-11.538 12.868-32.286.005-43.817 18.308-16.413 8.685-47.977-15.866-51.089v-56.776c.001-16.578-13.487-30.065-30.064-30.065h-95.03c-9.697 0-9.697 15 0 15h95.03c8.307 0 15.064 6.759 15.064 15.065v3.969h-185.18v-3.969c0-8.308 6.759-15.065 15.065-15.065h19.036c9.697 0 9.697-15 0-15h-19.036c-16.578 0-30.065 13.487-30.065 30.065v109.794c-20.418-13.013-48.011 2.373-48.011 26.521v175.869l-14.043 14.107c-15.256-7.126-34.114-3.72-45.973 8.194-15.834 15.905-15.834 41.785 0 57.69l46.421 46.634c6.841 6.873 17.471-3.709 10.631-10.582l-46.421-46.634c-10.025-10.07-10.025-26.456 0-36.526 9.864-9.909 26.536-9.855 36.345 0l77.425 77.779c10.023 10.07 10.023 26.456 0 36.526-11.462 11.515-29.283 8.875-39.283-2.951-6.842-6.874-17.471 3.71-10.631 10.582 15.739 17.43 43.37 20.204 60.545 2.951 13.959-14.023 15.61-35.8 4.954-51.659l13.512-13.574c40.589 3.097 79.999-19.31 98.205-55.747h41.44c16.577 0 30.064-13.487 30.064-30.065v-72.313c14.444-1.831 25.649-14.203 25.649-29.226zm-15 .099c0 7.919-6.442 14.361-14.361 14.361h-13.095c-7.918 0-14.36-6.442-14.36-14.361v-.1c0-7.919 6.442-14.361 14.36-14.361h13.095c7.919 0 14.361 6.443 14.361 14.461zm0-43.822c0 7.919-6.442 14.361-14.361 14.361h-13.095c-7.918 0-14.36-6.442-14.36-14.361v-.1c0-7.919 6.442-14.361 14.36-14.361h13.095c7.919 0 14.361 6.442 14.361 14.461zm0-43.822c0 7.919-6.442 14.361-14.361 14.361h-13.095c-7.918 0-14.36-6.442-14.36-14.361v-.1c0-7.919 6.442-14.361 14.36-14.361h13.095c7.919 0 14.361 6.442 14.361 14.461zm0-43.923c-.255 7.677-6.427 14.462-14.361 14.462h-13.095c-7.918 0-14.36-6.442-14.36-14.361v-.101c0-7.918 6.442-14.36 14.36-14.36h13.095c7.919-.001 14.361 6.442 14.361 14.36zm-25.648-66.933v37.572h-1.808c-16.189 0-29.36 13.171-29.36 29.36v.101c0 8.674 3.781 16.481 9.782 21.861-6 5.38-9.782 13.187-9.782 21.861v.1c0 8.674 3.781 16.481 9.782 21.861-6 5.38-9.782 13.187-9.782 21.861v.1c0 8.674 3.781 16.481 9.782 21.861-6 5.38-9.782 13.187-9.782 21.861v.1c0 16.189 13.171 29.361 29.36 29.361h1.808v37.572h-142.212c-4.749-25.583-19.496-49.612-42.968-61.863v-203.569zm-146.828 371.104-10.504-.489c-2.101-.084-4.172.701-5.664 2.201l-15.283 15.353-71.634-71.963 14.537-14.604c1.399-1.405 2.185-3.308 2.185-5.291v-178.965c0-21.125 32.57-21.125 32.57 0v90.744c0 2.99 1.776 5.695 4.521 6.883 17.869 7.732 31.09 23.744 37.227 45.086 6.922 24.074 3.23 50.65-9.635 69.358-5.337 7.76 6.625 16.838 12.359 8.5 1.737-2.526 3.334-5.169 4.79-7.911h77.721c-15.605 25.506-42.919 41.04-73.19 41.098zm131.763-56.098h-130.031c3.453-10.916 5.01-22.717 4.552-34.572h140.543v19.507c.001 8.306-6.757 15.065-15.064 15.065z"
            />
            <path
                d="m187.802 105.867c3.554 2.883 7.089 2.837 10.605-.139l21.953-22.534c6.767-6.945-3.979-17.415-10.744-10.467l-21.953 22.534c-2.891 2.968-2.828 7.716.139 10.606z"
            />
            <path
                d="m187.802 154.088c3.554 2.883 7.089 2.837 10.605-.139l68.929-70.755c6.767-6.945-3.979-17.415-10.744-10.467l-68.929 70.755c-2.891 2.967-2.828 7.715.139 10.606z"
            />
        </g>
    </g>
</svg>