<svg
    viewBox="0 0 512 512"
    xmlns="http://www.w3.org/2000/svg"
>
    <path
        d="m512 256c0 8.898438-.449219 17.691406-1.339844 26.359375-.78125 7.679687-1.910156 15.25-3.371094 22.710937-.550781 2.878907-1.160156 5.730469-1.808593 8.570313-.179688.808594-.378907 1.621094-.570313 2.417969-.109375.472656-.230468.929687-.339844 1.402344-23.109374 93.789062-97.921874 167.230468-192.460937 188.359374-5.230469 1.179688-10.519531 2.191407-15.859375 3.03125-9.46875 1.5-19.121094 2.46875-28.910156 2.898438-3.761719.171875-7.539063.25-11.339844.25-141.378906 0-256-114.621094-256-256s114.621094-256 256-256 256 114.621094 256 256zm0 0"
        fill="#808aff"
    />
    <path
        d="m510.660156 282.359375c-.78125 7.679687-1.910156 15.25-3.371094 22.710937-.550781 2.878907-1.160156 5.730469-1.808593 8.570313-.179688.808594-.378907 1.621094-.570313 2.417969-.109375.472656-.230468.929687-.339844 1.402344-23.109374 93.789062-97.921874 167.230468-192.460937 188.359374-5.230469 1.179688-10.519531 2.191407-15.859375 3.03125-9.46875 1.5-19.121094 2.46875-28.910156 2.898438-.261719-.25-136.761719-136.769531-136.761719-136.769531l228.441406-244.621094zm0 0"
        fill="#666ecc"
    />
    <path
        d="m227.507812 380.359375h-83.3125c-11.042968 0-20-8.953125-20-20v-175h103.3125zm0 0"
        fill="#ebebeb"
    />
    <path
        d="m359.023438 380.359375h-190c-11.046876 0-20-8.953125-20-20v-230h210zm0 0"
        fill="#fff"
    />
    <path
        d="m254.023438 130.359375h105v250h-105zm0 0"
        fill="#ebebeb"
    />
    <g fill="#c0dafb">
        <path d="m179.023438 159.859375h150v60h-150zm0 0" />
        <path d="m179.023438 239.890625h150v20h-150zm0 0" />
        <path d="m179.023438 279.890625h65v20h-65zm0 0" />
        <path d="m179.023438 319.890625h65v20h-65zm0 0" />
    </g>
    <path
        d="m264.023438 279.890625h65v60h-65zm0 0"
        fill="#a0b9d8"
    />
    <path
        d="m254.023438 239.890625h75v20h-75zm0 0"
        fill="#a0b9d8"
    />
    <path
        d="m254.023438 159.859375h75v60h-75zm0 0"
        fill="#a0b9d8"
    />
    <path
        d="m170.40625 273.222656 131.070312-91.777344 40.152344 57.34375-131.070312 91.777344zm0 0"
        fill="#ff6680"
    />
    <path
        d="m235.941406 227.332031 65.535156-45.886719 40.152344 57.34375-65.535156 45.886719zm0 0"
        fill="#d14960"
    />
    <path
        d="m223.695312 282.742188-11.980468 8.390624 8.664062 12.375-6.238281 4.371094-21.207031-30.285156 19.71875-13.804688 3.539062 5.054688-13.476562 9.433594 5.472656 7.820312 11.980469-8.386718zm0 0"
        fill="#fff"
    />
    <path
        d="m249.402344 273.886719-10.9375 7.660156 2.289062 7.695313-6.636718 4.644531-9.929688-38.175781 5.78125-4.050782 32.539062 22.347656-6.632812 4.644532zm-12.792969 1.425781 7.570313-5.300781-11.742188-8.671875zm0 0"
        fill="#fff"
    />
    <path
        d="m269.511719 251.003906-.796875 5.765625 6.054687 8.652344-6.238281 4.367187-21.203125-30.28125 6.238281-4.371093 9.613282 13.726562.109374-5.683593.738282-15.367188 7.675781-5.375-1.332031 20.988281 22.847656 9.078125-7.421875 5.195313zm0 0"
        fill="#ebebeb"
    />
    <path
        d="m307.796875 222.738281-11.980469 8.390625 5.679688 8.109375 14.058594-9.84375 3.511718 5.011719-20.300781 14.214844-21.203125-30.28125 20.257812-14.1875 3.539063 5.054687-14.019531 9.816407 5.054687 7.214843 11.980469-8.386719zm0 0"
        fill="#ebebeb"
    />
</svg>