<svg
    id="Layer_1"
    enable-background="new 0 0 507.367 507.367"
    viewBox="0 0 507.367 507.367"
    xmlns="http://www.w3.org/2000/svg"
>
    <path
        d="m490.877 70.506h-474.387c-9.107 0-16.49 7.383-16.49 16.49v333.375c0 9.107 7.383 16.49 16.49 16.49h474.387c9.107 0 16.49-7.383 16.49-16.49v-333.375c0-9.107-7.383-16.49-16.49-16.49z"
        fill="#80b9ed"
    />
    <path
        d="m282.994 299.445c71.108-39.094 155.864-13.063 224.373 24.187v-236.636c0-9.107-7.383-16.49-16.49-16.49h-474.387c-9.107 0-16.49 7.383-16.49 16.49v269.087c62.864 3.019 181.117-.626 282.994-56.638z"
        fill="#8bc4ff"
    />
    <path
        d="m490.877 70.506h-474.387c-9.107 0-16.49 7.383-16.49 16.49v94.067c36.792 3.273 88.533.647 161.229-12.485 158.848-28.695 275.442-11.347 346.138 8.74v-90.322c0-9.107-7.383-16.49-16.49-16.49z"
        fill="#a2d0f9"
    />
    <path
        d="m490.877 436.861h-474.387c-9.107 0-16.49-7.383-16.49-16.49v-333.375c0-9.107 7.383-16.49 16.49-16.49h474.387c9.107 0 16.49 7.383 16.49 16.49v333.375c0 9.108-7.383 16.49-16.49 16.49zm-457.897-32.98h441.406v-300.395h-441.406z"
        fill="#2e58ff"
    />
</svg>