<svg height="464pt" viewBox="0 0 464 464" width="464pt" xmlns="http://www.w3.org/2000/svg"><path d="m420.320312 194.558594c-4.875-24.734375-14.609374-48.253906-28.640624-69.199219l26.960937-34.800781-45.199219-45.199219-34.800781 26.960937c-20.945313-14.03125-44.464844-23.765624-69.199219-28.640624l-5.441406-43.679688h-64l-5.441406 43.679688c-24.734375 4.875-48.253906 14.609374-69.199219 28.640624l-34.800781-26.960937-45.199219 45.199219 26.960937 34.800781c-14.03125 20.945313-23.765624 44.464844-28.640624 69.199219l-43.679688 5.441406v64l43.679688 5.441406c4.875 24.734375 14.609374 48.253906 28.640624 69.199219l-26.960937 34.800781 45.199219 45.199219 34.800781-26.960937c20.945313 14.03125 44.464844 23.765624 69.199219 28.640624l5.441406 43.679688h64l5.441406-43.679688c24.734375-4.875 48.253906-14.609374 69.199219-28.640624l34.800781 26.960937 45.199219-45.199219-26.960937-34.800781c14.03125-20.945313 23.765624-44.464844 28.640624-69.199219l43.679688-5.441406v-64zm-188.320312 109.441406c-39.765625 0-72-32.234375-72-72s32.234375-72 72-72 72 32.234375 72 72-32.234375 72-72 72zm0 0" fill="#ff5023"/><path d="m232 112c-66.273438 0-120 53.726562-120 120s53.726562 120 120 120 120-53.726562 120-120-53.726562-120-120-120zm0 192c-39.765625 0-72-32.234375-72-72s32.234375-72 72-72 72 32.234375 72 72-32.234375 72-72 72zm0 0" fill="#ff9811"/><path d="m360 360v80c0 13.253906-10.746094 24-24 24s-24-10.746094-24-24v-80zm0 0" fill="#957856"/><path d="m320 320h32v40h-32zm0 0" fill="#787680"/><g fill="#57565c"><path d="m332 128.199219c-1.335938-.046875-2.648438-.199219-4-.199219-29.496094 0-57.59375 12.566406-77.257812 34.550781 2.136718.578125 4.226562 1.246094 6.28125 2.007813 18.816406-22.058594 46.003906-35.242188 74.976562-36.359375zm0 0"/><path d="m320 334.648438c-24.546875-3.828126-46.910156-16.3125-63.046875-35.199219-2.027344.75-4.089844 1.414062-6.191406 1.984375 15.984375 17.78125 37.613281 29.511718 61.238281 33.214844v25.351562h8zm0 0"/><path d="m304 360v49.992188c2.699219-1.097657 5.367188-2.253907 8-3.464844v-46.527344zm0 0"/></g><path d="m328 368c4.417969 0 8 3.582031 8 8v24c0 4.417969-3.582031 8-8 8s-8-3.582031-8-8v-24c0-4.417969 3.582031-8 8-8zm0 0" fill="#a78966"/><path d="m320 328h8v32h-8zm0 0" fill="#898890"/><path d="m440 232c0 57.4375-46.5625 104-104 104s-104-46.5625-104-104 46.5625-104 104-104 104 46.5625 104 104zm0 0" fill="#5aaae7"/><path d="m336 312c-44.183594 0-80-35.816406-80-80s35.816406-80 80-80v16c-35.347656 0-64 28.652344-64 64s28.652344 64 64 64zm0 0" fill="#fff"/></svg>