<?xml version="1.0" ?><svg id="Layer_1" style="enable-background:new 0 0 64 64;" version="1.1" viewBox="0 0 64 64" xml:space="preserve" xmlns="http://www.w3.org/2000/svg" xmlns:xlink="http://www.w3.org/1999/xlink"><style type="text/css">
	.st0{fill:#62BEE7;}
	.st1{fill:#474E5E;}
	.st2{fill:#F3EEE4;}
	.st3{fill:#FFFFFF;}
	.st4{fill:#E8DCCA;}
	.st5{opacity:0.1;fill:#231F20;}
	.st6{fill:#506268;}
	.st7{fill:#EB5151;}
	.st8{fill:#C64444;}
	.st9{fill:#9CCB5B;}
	.st10{fill:#404A4C;}
	.st11{fill:#676767;}
	.st12{fill:#E0E1E5;}
	.st13{fill:#9D9EA0;}
	.st14{fill:#B3B4B7;}
	.st15{opacity:0.1;}
	.st16{fill:#231F20;}
	.st17{fill:#FACC20;}
	.st18{fill:#FDEF34;}
	.st19{fill:#F7A90B;}
	.st20{fill:#20B8EA;}
	.st21{fill:#00A8EA;}
	.st22{fill:#33D3F4;}
	.st23{opacity:0.25;fill:#FFFFFF;}
	.st24{fill:#CACBCE;}
	.st25{fill:#2E3545;}
	.st26{fill:#8DAF4A;}
	.st27{fill:#F9C2AF;}
	.st28{fill:#AFDDF4;}
	.st29{fill:#677177;}
	.st30{fill:#FFEDB3;}
	.st31{fill:#695652;}
	.st32{fill:#30A7BF;}
	.st33{fill:#4D5556;}
	.st34{opacity:0.35;}
	.st35{fill:#FFCB04;}
	.st36{fill:#99E9FA;}
	.st37{opacity:0.2;}
	.st38{opacity:3.000000e-02;}
	.st39{fill:#9ECA5B;}
	.st40{fill:#98BA56;}
	.st41{fill:#40EEFF;}
	.st42{fill:#FF6A52;}
	.st43{opacity:0.1;fill:#FFFFFF;}
	.st44{opacity:0.4;}
	.st45{fill:#57606D;}
	.st46{fill:#BACA5B;}
	.st47{opacity:0.25;}
	.st48{opacity:5.000000e-02;fill:#231F20;}
	.st49{opacity:0.2;fill:#FFFFFF;}
	.st50{opacity:0.3;}
	.st51{fill:#FFD82F;}
	.st52{fill:#F4C121;}
	.st53{fill:#EF9D0A;}
	.st54{fill:#F9E532;}
	.st55{fill:#F4C01E;}
	.st56{fill:#FFE14D;}
	.st57{fill:#B7C156;}
	.st58{fill:#DBA92C;}
	.st59{fill:#363D4D;}
	.st60{fill:#3F4656;}
	.st61{fill:#463E33;}
	.st62{fill:none;}
	.st63{opacity:4.000000e-02;}
	.st64{fill:#4DB6AC;}
	.st65{fill:#CADE49;}
	.st66{fill:#9FD343;}
	.st67{fill:#AAD643;}
	.st68{fill:#82C736;}
	.st69{opacity:0.3;fill:#FFFFFF;}
	.st70{fill:#FFD640;}
	.st71{opacity:0.5;}
	.st72{opacity:0.6;}
</style><g><circle class="st0" cx="32" cy="32" r="32"/><g><rect class="st1" height="20.6" width="27.7" x="18.5" y="21.5"/><rect class="st2" height="4.4" width="45.7" x="9.2" y="46.5"/><rect class="st2" height="4.4" width="41.3" x="11.4" y="42.1"/><rect class="st3" height="14.7" width="4.4" x="15.8" y="24.4"/><rect class="st4" height="2.9" width="7.4" x="14.3" y="21.5"/><rect class="st4" height="2.9" width="7.4" x="42.3" y="39.2"/><rect class="st4" height="2.9" width="7.4" x="14.3" y="39.2"/><rect class="st4" height="2.9" width="7.4" x="42.3" y="21.5"/><rect class="st5" height="1.3" width="7.4" x="14.3" y="21.5"/><rect class="st5" height="1.3" width="7.4" x="42.3" y="21.5"/><polygon class="st2" points="10.6,17.1 32,5.3 53.4,17.1 53.4,21.5 10.6,21.5   "/><polygon class="st4" points="13.8,19.6 13.8,19.2 32.6,8.8 51.5,19.2 51.5,19.6   "/><circle class="st5" cx="32.6" cy="14.2" r="2.3"/><polygon class="st5" points="33.3,9.5 51.5,19.5 51.5,19.2 32.6,8.8 13.8,19.2 13.8,19.6 14.9,19.6   "/><path class="st3" d="M32,11.3c-1.3,0-2.3,1-2.3,2.3c0,0.6,0.3,1.2,0.7,1.6l3.3-3.3C33.2,11.5,32.6,11.3,32,11.3z"/><path class="st2" d="M30.4,15.2c0.4,0.4,1,0.7,1.6,0.7c1.3,0,2.3-1,2.3-2.3c0-0.6-0.3-1.2-0.7-1.6L30.4,15.2z"/><rect class="st5" height="1.3" width="7.4" x="14.3" y="21.5"/><rect class="st5" height="1.3" width="7.4" x="42.3" y="21.5"/><rect class="st5" height="1.3" width="7.4" x="14.3" y="40.8"/><rect class="st5" height="1.3" width="7.4" x="42.3" y="40.8"/><rect class="st5" height="1.3" width="45.7" x="9.2" y="49.7"/><rect class="st5" height="1.3" width="41.3" x="11.4" y="45.3"/><g><path class="st3" d="M37.2,42.1v-9.4c0-2.8-2.3-5.2-5.2-5.2c-2.8,0-5.2,2.3-5.2,5.2l0,9.4H37.2z"/><path class="st6" d="M32.3,28.2c1,0.1,1.9,0.5,2.6,1.1l-2.6,2.6V28.2z"/><path class="st6" d="M31.7,31.9l-2.6-2.6c0.7-0.6,1.6-1,2.6-1.1V31.9z"/><path class="st6" d="M35.4,29.7c0.6,0.7,1,1.6,1.1,2.6h-3.7L35.4,29.7z"/><path class="st6" d="M28.6,29.7l2.6,2.6h-3.7C27.6,31.3,28,30.4,28.6,29.7z"/></g><rect class="st7" height="9.2" width="4.5" x="27.5" y="33"/><rect class="st8" height="9.2" width="4.5" x="32" y="33"/><rect class="st3" height="14.7" width="4.4" x="43.8" y="24.4"/><rect class="st5" height="14.7" width="2.2" x="46" y="24.4"/><rect class="st5" height="14.7" width="2.2" x="18" y="24.4"/></g></g></svg>