<?xml version="1.0" encoding="iso-8859-1"?>
<!-- Generator: Adobe Illustrator 19.0.0, SVG Export Plug-In . SVG Version: 6.00 Build 0)  -->
<svg version="1.1" id="Layer_1" xmlns="http://www.w3.org/2000/svg" xmlns:xlink="http://www.w3.org/1999/xlink" x="0px" y="0px"
	 viewBox="0 0 512 512" style="enable-background:new 0 0 512 512;" xml:space="preserve">
<path style="fill:#7DD2F0;" d="M429.821,444.23c0,37.428-77.823,67.77-173.823,67.77S82.173,481.658,82.173,444.23V318.744H429.82
	V444.23H429.821z"/>
<path style="fill:#6AB2CC;" d="M429.821,318.744c0,37.428-77.823,67.77-173.823,67.77s-173.824-30.342-173.824-67.77V193.256H429.82
	v125.487H429.821z"/>
<path style="fill:#7DD2F0;" d="M429.821,193.256c0,37.428-77.823,67.77-173.823,67.77s-173.824-30.342-173.824-67.77V67.77H429.82
	v125.486H429.821z"/>
<ellipse style="fill:#A6E8FF;" cx="256.001" cy="67.768" rx="173.827" ry="67.768"/>
<g>
	<circle style="fill:#B9FF8C;" cx="286.518" cy="192.652" r="14.838"/>
	<circle style="fill:#B9FF8C;" cx="341.166" cy="184.154" r="14.838"/>
	<circle style="fill:#B9FF8C;" cx="392.663" cy="168.62" r="14.838"/>
	<circle style="fill:#B9FF8C;" cx="286.518" cy="319.236" r="14.838"/>
	<circle style="fill:#B9FF8C;" cx="341.166" cy="310.738" r="14.838"/>
	<circle style="fill:#B9FF8C;" cx="392.663" cy="295.203" r="14.838"/>
	<circle style="fill:#B9FF8C;" cx="286.518" cy="443.644" r="14.838"/>
	<circle style="fill:#B9FF8C;" cx="341.166" cy="435.146" r="14.838"/>
	<circle style="fill:#B9FF8C;" cx="392.663" cy="419.622" r="14.838"/>
</g>
<g>
</g>
<g>
</g>
<g>
</g>
<g>
</g>
<g>
</g>
<g>
</g>
<g>
</g>
<g>
</g>
<g>
</g>
<g>
</g>
<g>
</g>
<g>
</g>
<g>
</g>
<g>
</g>
<g>
</g>
</svg>
