<?xml version="1.0" ?>
<!DOCTYPE
    svg
    PUBLIC '-//W3C//DTD SVG 1.1//EN' 'http://www.w3.org/Graphics/SVG/1.1/DTD/svg11.dtd'
><svg
    style="enable-background:new 0 0 512 512;"
    version="1.1"
    viewBox="0 0 512 512"
    xml:space="preserve"
    xmlns="http://www.w3.org/2000/svg"
    xmlns:xlink="http://www.w3.org/1999/xlink"
>
    <g id="card_x2C__income_x2C__pattern_x2C__paying_x2C__payment_x2C__sage_x2C_">
        <g>
            <path
                d="M495.951,390.001c0,8.836-7.123,15.959-15.959,15.959H32.014    c-8.842,0-15.965-7.123-15.965-15.959V122.005c0-8.842,7.123-15.965,15.965-15.965h447.979c8.836,0,15.959,7.123,15.959,15.965    V390.001z"
                style="fill-rule:evenodd;clip-rule:evenodd;fill:#058161;"
            />
            <path
                d="M399.645,253.113c0-12.169-9.465-34.986-40.125-35.078    c-13.346-0.087-23.354,5.773-27.949,9.648v-8.65h-20.563v8.65c-5.053-4.325-11.096-8.2-17.307-9.192    c-6.496-0.992-13.082-0.635-21.111,1.799c-6.758,1.99-10.998,4.96-15.145,9.649c-8.566-9.557-22.097-11.448-32.917-11.904    c-12.262-0.357-24.708,1.084-34.357,8.121c-9.285-4.689-21.005-8.479-34.08-8.386c-11.454,0.086-22.459,2.704-30.211,9.378    c-2.797,2.434-4.152,4.325-5.496,7.751c-2.711,6.852-1.627,14.701,1.442,18.849c5.767,7.665,12.169,10.641,23.71,11.898    c10.105,1.084,17.228,1.177,24.708,2.526c3.519,0.634,6.766,3.247,6.766,7.123c0,4.51-6.31,11.997-21.641,11.004    c-12.717-0.905-17.498-2.705-29.489-10.455l-13.524,10.905c0,0,2.249,1.892,3.875,2.89c1.442,0.986,3.068,1.979,4.69,2.792l0,0    c13.709,7.394,30.925,10.462,46.618,7.936c7.665-1.177,14.881-3.79,21.19-7.844c5.053,3.427,11.726,9.378,27.961,8.657    c10.186-0.45,17.759-0.092,24.795-8.207v8.115h19.841v-8.115c0,0,3.063,2.52,5.318,3.875c12.533,7.486,32.553,4.689,44.457-4.325    v10.462c-0.363,6.489-6.316,10.907-12.533,13.434c-10.82,4.325-20.654,0.449-29.49-5.773l-15.061,10.099    c4.055,4.061,7.752,6.408,13.619,9.021c16.23,7.486,35.164,4.867,48.332-2.883c8.656-5.146,11.99-11.369,14.061-21.012    c1.084-5.14,1.27-8.929,1.355-13.438l0,0c0-0.093,0-0.272,0-0.364c0.186,0.092,0.363,0.271,0.543,0.364    c4.238,2.884,7.936,5.052,13.531,6.759c9.193,2.797,19.563,2.982,31.104-0.086c5.41-1.442,10.191-3.697,14.43-6.673l0,0    c2.342-1.62,4.512-3.519,6.496-5.503l-12.896-9.285c-4.418,3.604-10.912,7.215-18.398,8.115c-8.566,1.17-18.395-0.45-23.625-6.132    c-2.889-3.062-3.875-4.06-3.875-11.904l60.951,0.093V253.113L399.645,253.113z M269.893,258.795    c0.178-4.504,0.627-9.286,1.078-13.975c0.178-2.343,2.975-5.139,6.943-7.302c3.518-1.892,8.023-3.341,12.354-3.341    c3.334,0,6.766,0.629,9.736,1.806c5.324,1.984,9.385,5.589,9.74,10.278c0.451,4.332,0.9,8.387,1.086,12.354    c0.271,4.875,0.086,9.558-0.906,13.981c-0.721,2.884-2.162,5.318-5.045,7.665c-3.342,2.612-8.48,4.954-14.611,4.597    c-8.471-0.449-16.137-3.882-18.393-8.564C269.979,272.319,269.621,266.01,269.893,258.795L269.893,258.795z M233.728,285.038    c-4.233,1.355-11.084,1.982-18.307,1.176c-6.038-0.727-11.719-1.176-14.066-6.587c-1.263-2.884-0.992-5.589,0.992-8.114    c3.068-3.968,10.283-4.689,14.517-4.782h23.63C241.121,272.954,243.112,282.062,233.728,285.038L233.728,285.038z     M163.577,251.493c-9.477-0.542-18.127-0.722-22.909-4.511c-2.705-2.162-2.163-8.386,1.713-10.641    c5.41-3.334,12.083-3.155,15.873-2.971c7.751,0.357,16.68,2.884,23.709,7.573l8.208-7.573c0,0,8.75,7.93,8.75,7.573    c10.099-7.037,13.709-7.037,23.081-7.037c12.896,0,16.594,2.526,18.491,5.323c1.171,1.8,0,12.712,0,12.712    s-11.368,0.364-19.569-0.092c-6.494-0.265-10.186-0.357-16.68,0.728c-5.952,0.992-9.92,2.698-14.073,6.037    c0,0-3.426-2.434-7.296-4.146C175.926,251.314,171.058,251.851,163.577,251.493L163.577,251.493z M339.234,252.936    c0-4.961,1.258-8.929,3.334-11.905c4.232-6.131,11.813-8.743,19.119-8.743c7.123,0,14.518,2.612,18.844,8.207    c2.525,3.154,4.061,7.209,4.061,12.441H339.234L339.234,252.936z"
                style="fill-rule:evenodd;clip-rule:evenodd;fill:#FFFFFF;"
            />
        </g>
    </g>
    <g id="Layer_1" />
</svg>