<?xml version="1.0" ?><!DOCTYPE svg  PUBLIC '-//W3C//DTD SVG 1.1//EN'  'http://www.w3.org/Graphics/SVG/1.1/DTD/svg11.dtd'><svg height="100%" style="fill-rule:evenodd;clip-rule:evenodd;stroke-linejoin:round;stroke-miterlimit:1.41421;" version="1.1" viewBox="0 0 1062 1062" width="100%" xml:space="preserve" xmlns="http://www.w3.org/2000/svg" xmlns:xlink="http://www.w3.org/1999/xlink"><circle cx="531.308" cy="531.308" id="circle6" r="531.308" style="fill:rgb(37,183,211);"/><path d="M783.583,397.441L881.957,495.814C900.695,514.552 900.695,544.933 881.957,563.671L663.61,782.018L783.579,662.048C744.983,655.561 724.172,637.515 712.138,609.193C709.094,594.431 702.013,580.578 690.93,569.4L690.929,569.398L690.929,569.399C689.947,568.409 688.934,567.44 687.889,566.493C655.82,537.42 605.761,539.798 573.212,570.901L572.83,571.269C541.378,603.807 538.868,654.133 568.054,686.328C569.001,687.372 569.97,688.386 570.96,689.367L570.96,689.368L570.961,689.368C582.139,700.451 595.993,707.533 610.754,710.577C639.077,722.61 657.122,743.421 663.61,782.018L565.233,880.395C546.494,899.133 516.114,899.133 497.376,880.395L180.659,563.679C161.994,545.014 161.922,514.797 180.441,496.042L180.659,495.822L281.549,394.933L277.108,399.373L497.383,179.098L180.659,495.822L643.587,32.894L497.604,178.879C516.359,160.36 546.575,160.433 565.24,179.098L781.502,395.36L663.614,277.471C702.21,270.984 723.021,252.938 735.055,224.616C738.099,209.854 745.18,196.001 756.263,184.823L756.264,184.821L756.264,184.822C757.246,183.832 758.259,182.863 759.304,181.916C791.498,152.73 841.824,155.24 874.363,186.692L874.73,187.074C905.834,219.623 908.211,269.682 879.139,301.751C878.192,302.795 877.223,303.809 876.233,304.79L876.233,304.791L876.232,304.791C865.054,315.874 851.2,322.956 836.439,326C808.116,338.033 790.071,358.844 783.583,397.441ZM277.108,399.373C315.705,405.861 336.516,423.907 348.549,452.229C351.593,466.99 358.675,480.844 369.758,492.022L369.758,492.023L369.759,492.023C370.74,493.013 371.753,493.982 372.798,494.929C404.993,524.115 455.319,521.605 487.857,490.153L488.224,489.771C519.328,457.222 521.705,407.163 492.633,375.094C491.686,374.049 490.717,373.036 489.727,372.055L489.728,372.054L489.726,372.054C478.548,360.971 464.694,353.889 449.933,350.845C421.61,338.812 403.565,318.001 397.077,279.404L281.549,394.933L277.108,399.373ZM399.002,782.022C360.406,788.509 339.595,806.555 327.561,834.877C324.517,849.639 317.436,863.492 306.353,874.67L306.352,874.672L306.352,874.671C305.37,875.661 304.357,876.63 303.312,877.577C271.118,906.763 220.792,904.253 188.253,872.801L187.886,872.419C156.782,839.87 154.405,789.811 183.477,757.742C184.424,756.698 185.393,755.685 186.383,754.703L186.383,754.702L186.384,754.702C197.562,743.619 211.416,736.537 226.177,733.493C254.5,721.46 272.545,700.649 279.033,662.052L399.002,782.022Z" style="fill:rgb(235,235,235);"/></svg>