<svg
    id="Capa_1"
    enable-background="new 0 0 512 512"
    viewBox="0 0 512 512"
    xmlns="http://www.w3.org/2000/svg"
>
    <g>
        <path
            d="m481.674 436.772h-451.348c-16.749 0-30.326-13.577-30.326-30.325v-300.894c0-16.748 13.577-30.326 30.326-30.326h451.349c16.748 0 30.326 13.577 30.326 30.326v300.893c-.001 16.749-13.578 30.326-30.327 30.326z"
            fill="#365e7d"
        />
        <path
            d="m481.674 75.228h-20.592c16.748 0 30.326 13.577 30.326 30.326v300.893c0 16.748-13.577 30.326-30.326 30.326h20.592c16.748 0 30.326-13.577 30.326-30.326v-300.894c0-16.748-13.577-30.325-30.326-30.325z"
            fill="#2b4d66"
        />
        <path
            d="m54.878 408.191c-.909 0-1.649-.783-1.649-1.744v-300.894c0-.961.74-1.744 1.649-1.744h426.89c.91 0 1.65.783 1.65 1.744v300.894c0 .961-.74 1.744-1.65 1.744z"
            fill="#d3effb"
        />
        <path
            d="m481.769 103.809h-22.03c.91 0 1.65.783 1.65 1.744v300.894c0 .961-.74 1.744-1.65 1.744h22.03c.91 0 1.65-.783 1.65-1.744v-300.894c0-.961-.74-1.744-1.65-1.744z"
            fill="#b1e4f9"
        />
        <g>
            <path
                d="m26.875 270.918c-4.268 0-7.726-3.459-7.726-7.726v-14.382c0-4.268 3.459-7.726 7.726-7.726s7.726 3.459 7.726 7.726v14.382c0 4.267-3.458 7.726-7.726 7.726z"
                fill="#2b4d66"
            />
        </g>
        <path
            d="m430.428 275.668c-.804-1.479-1.225-3.136-1.225-4.819v-29.697c0-1.684.421-3.34 1.225-4.819l8.083-14.878c1.677-3.087 1.629-6.824-.128-9.867l-12.056-20.881c-1.757-3.043-4.969-4.953-8.481-5.044l-16.926-.439c-1.683-.044-3.328-.508-4.786-1.349l-25.718-14.849c-1.458-.842-2.682-2.035-3.561-3.47l-8.843-14.439c-1.835-2.996-5.096-4.822-8.609-4.822h-24.113c-3.513 0-6.774 1.826-8.609 4.822l-8.843 14.439c-.879 1.436-2.103 2.629-3.561 3.47l-25.718 14.849c-1.458.842-3.103 1.305-4.786 1.349l-16.926.439c-3.512.091-6.724 2.002-8.481 5.044l-12.056 20.881c-1.757 3.043-1.805 6.78-.128 9.867l8.083 14.878c.804 1.479 1.225 3.136 1.225 4.819v29.697c0 1.684-.421 3.34-1.225 4.819l-8.083 14.878c-1.677 3.087-1.629 6.824.128 9.867l12.056 20.881c1.757 3.042 4.969 4.953 8.481 5.044l16.926.439c1.683.044 3.328.508 4.786 1.349l25.718 14.849c1.458.842 2.682 2.035 3.561 3.47l8.843 14.439c1.835 2.996 5.096 4.822 8.609 4.822h24.111c3.513 0 6.774-1.826 8.609-4.822l8.843-14.439c.879-1.436 2.103-2.629 3.561-3.47l25.718-14.849c1.458-.842 3.103-1.305 4.786-1.349l16.926-.439c3.512-.092 6.724-2.002 8.481-5.044l12.056-20.881c1.757-3.043 1.805-6.78.128-9.867zm-93.082 35.185c-30.295 0-54.853-24.559-54.853-54.853 0-30.295 24.559-54.854 54.853-54.854s54.853 24.559 54.853 54.854c0 30.294-24.558 54.853-54.853 54.853z"
            fill="#61a2f9"
        />
        <path
            d="m325.832 202.367c-3.714-.793-7.564-1.22-11.514-1.22-30.295 0-54.853 24.559-54.853 54.854 0 30.294 24.559 54.853 54.853 54.853 3.951 0 7.8-.427 11.514-1.22-24.765-5.292-43.339-27.289-43.339-53.633 0-26.345 18.574-48.342 43.339-53.634z"
            fill="#5490f9"
        />
        <path
            d="m430.428 275.668c-.804-1.479-1.225-3.136-1.225-4.819v-29.697c0-1.684.421-3.34 1.225-4.819l8.083-14.878c1.677-3.087 1.629-6.824-.128-9.867l-12.056-20.881c-1.757-3.043-4.969-4.953-8.481-5.044l-16.926-.439c-1.683-.044-3.328-.508-4.786-1.349l-25.718-14.849c-1.458-.842-2.682-2.035-3.561-3.47l-8.843-14.439c-1.835-2.996-5.096-4.822-8.609-4.822h-23.029c3.513 0 6.774 1.826 8.609 4.822l8.843 14.439c.879 1.436 2.103 2.629 3.561 3.47l25.718 14.849c1.458.842 3.103 1.305 4.786 1.349l16.926.439c3.512.091 6.724 2.002 8.481 5.044l12.056 20.881c1.757 3.043 1.805 6.78.128 9.867l-8.083 14.878c-.804 1.479-1.225 3.136-1.225 4.819v29.697c0 1.684.421 3.34 1.225 4.819l8.083 14.878c1.677 3.087 1.629 6.824-.128 9.867l-12.056 20.881c-1.757 3.042-4.969 4.953-8.481 5.044l-16.926.439c-1.683.044-3.328.508-4.786 1.349l-25.718 14.849c-1.458.842-2.682 2.035-3.561 3.47l-8.843 14.439c-1.835 2.996-5.096 4.822-8.609 4.822h23.029c3.513 0 6.774-1.826 8.609-4.822l8.843-14.439c.879-1.436 2.103-2.629 3.561-3.47l25.718-14.849c1.458-.842 3.103-1.305 4.786-1.349l16.926-.439c3.512-.092 6.724-2.002 8.481-5.044l12.056-20.881c1.757-3.043 1.805-6.78.128-9.867z"
            fill="#5490f9"
        />
        <g>
            <path
                d="m128.209 243.188c-3.032 0-5.908-1.796-7.141-4.772l-16.775-40.49c-1.634-3.942.238-8.462 4.181-10.095s8.462.238 10.095 4.181l16.775 40.49c1.634 3.942-.238 8.462-4.181 10.095-.967.401-1.969.591-2.954.591z"
                fill="#365e7d"
            />
        </g>
        <path
            d="m132.824 205.785h-25.299c-9.708 0-17.578-7.87-17.578-17.578v-15.995c0-9.708 7.87-17.578 17.578-17.578h25.299z"
            fill="#ffc250"
        />
        <path
            d="m116.369 154.633h16.455v51.152h-16.455z"
            fill="#ebb044"
        />
        <path
            d="m132.824 205.785 49.204 16.608v-84.369l-49.204 16.609z"
            fill="#e27d47"
        />
        <path
            d="m162.876 144.489v71.44l19.152 6.464v-84.369z"
            fill="#dd544f"
        />
        <g>
            <path
                d="m182.028 235.876c-4.268 0-7.726-3.459-7.726-7.726v-95.882c0-4.268 3.459-7.726 7.726-7.726s7.726 3.459 7.726 7.726v95.882c0 4.268-3.458 7.726-7.726 7.726z"
                fill="#2b4d66"
            />
        </g>
        <g>
            <path
                d="m182.028 293.393h-82.802c-4.268 0-7.726-3.459-7.726-7.726s3.459-7.726 7.726-7.726h82.802c4.268 0 7.726 3.459 7.726 7.726s-3.458 7.726-7.726 7.726z"
                fill="#365e7d"
            />
        </g>
        <g>
            <path
                d="m140.821 331.175h-41.595c-4.268 0-7.726-3.459-7.726-7.726s3.459-7.726 7.726-7.726h41.595c4.268 0 7.726 3.459 7.726 7.726s-3.459 7.726-7.726 7.726z"
                fill="#365e7d"
            />
        </g>
    </g>
</svg>